<svg width="40" height="40" viewBox="0 0 40 40" fill="none" xmlns="http://www.w3.org/2000/svg">
<circle cx="20" cy="20" r="16" stroke="white" stroke-width="2"/>
<path d="M26.2498 19.1667V17.0833H25.2082V19.1667H23.1248V20.2083H25.2082V22.2917H26.2498V20.2083H28.3332V19.1667H26.2498ZM16.8748 19.1667V21.25H19.8215C19.6052 21.8588 19.206 22.3858 18.6784 22.7588C18.1509 23.1318 17.5209 23.3324 16.8748 23.3333C16.0463 23.3325 15.252 23.0029 14.6661 22.4171C14.0802 21.8312 13.7507 21.0369 13.7498 20.2083C13.7498 18.485 15.1515 17.0833 16.8748 17.0833C17.6215 17.0833 18.3415 17.35 18.8982 17.8383L20.2682 16.2667C19.3272 15.4484 18.1218 14.9985 16.8748 15C15.494 15.0018 14.1703 15.5511 13.1939 16.5274C12.2176 17.5038 11.6683 18.8275 11.6665 20.2083C11.6683 21.5891 12.2176 22.9129 13.1939 23.8892C14.1703 24.8656 15.494 25.4149 16.8748 25.4167C18.2556 25.4149 19.5794 24.8656 20.5557 23.8892C21.5321 22.9129 22.0814 21.5891 22.0832 20.2083V19.1667H16.8748Z" fill="white"/>
</svg>
