<svg width="40" height="40" viewBox="0 0 40 40" fill="none" xmlns="http://www.w3.org/2000/svg">
<circle cx="20" cy="20" r="16" stroke="#BEBEBE" stroke-width="2"/>
<path d="M20.6202 12.5925C16.0498 12.5925 13.7461 15.8703 13.7461 18.5999C13.7461 20.2573 14.372 21.7259 15.7146 22.274C15.935 22.3648 16.1331 22.2777 16.1979 22.0351L16.3924 21.261C16.4572 21.0222 16.4313 20.937 16.2554 20.7259C15.8683 20.2703 15.6183 19.6777 15.6183 18.8388C15.6183 16.4092 17.4368 14.2333 20.3554 14.2333C22.9405 14.2333 24.3572 15.8129 24.3572 17.9185C24.3572 20.6925 23.1313 23.0333 21.3091 23.0333C20.3035 23.0333 19.5498 22.2018 19.7905 21.1796C20.0794 19.9611 20.6405 18.6462 20.6405 17.7666C20.6405 16.9777 20.2165 16.324 19.3442 16.324C18.3146 16.324 17.4887 17.387 17.4887 18.8129C17.4887 19.7203 17.7961 20.3351 17.7961 20.3351L16.5572 25.5759C16.1905 27.1314 16.5035 29.0388 16.5294 29.2314C16.5442 29.3462 16.6905 29.374 16.7572 29.287C16.8535 29.1629 18.0776 27.6481 18.4942 26.1388C18.6128 25.7129 19.172 23.4962 19.172 23.4962C19.5054 24.1333 20.4813 24.6925 21.5202 24.6925C24.6128 24.6925 26.7109 21.8759 26.7109 18.0999C26.7091 15.2518 24.2924 12.5925 20.6202 12.5925Z" fill="#BEBEBE"/>
</svg>
